<svg width="36" height="36" viewBox="0 0 36 36" fill="none" xmlns="http://www.w3.org/2000/svg">
<circle cx="18" cy="18" r="18" fill="#F5F5FF"/>
<path d="M17.5 20.875C18.8117 20.875 19.875 19.8117 19.875 18.5C19.875 17.1883 18.8117 16.125 17.5 16.125C16.1883 16.125 15.125 17.1883 15.125 18.5C15.125 19.8117 16.1883 20.875 17.5 20.875Z" stroke="#5256E8" stroke-width="1.2" stroke-miterlimit="10" stroke-linecap="round" stroke-linejoin="round"/>
<path d="M9.58398 19.1965V17.8031C9.58398 16.9798 10.2569 16.299 11.0882 16.299C12.5211 16.299 13.1069 15.2856 12.3865 14.0427C11.9748 13.3302 12.2202 12.404 12.9407 11.9923L14.3102 11.2086C14.9357 10.8365 15.7432 11.0581 16.1152 11.6836L16.2023 11.834C16.9148 13.0769 18.0865 13.0769 18.8069 11.834L18.894 11.6836C19.2661 11.0581 20.0736 10.8365 20.699 11.2086L22.0686 11.9923C22.789 12.404 23.0344 13.3302 22.6227 14.0427C21.9023 15.2856 22.4882 16.299 23.9211 16.299C24.7444 16.299 25.4252 16.9719 25.4252 17.8031V19.1965C25.4252 20.0198 24.7523 20.7006 23.9211 20.7006C22.4882 20.7006 21.9023 21.714 22.6227 22.9569C23.0344 23.6773 22.789 24.5956 22.0686 25.0073L20.699 25.7911C20.0736 26.1631 19.2661 25.9415 18.894 25.3161L18.8069 25.1656C18.0944 23.9227 16.9227 23.9227 16.2023 25.1656L16.1152 25.3161C15.7432 25.9415 14.9357 26.1631 14.3102 25.7911L12.9407 25.0073C12.2202 24.5956 11.9748 23.6694 12.3865 22.9569C13.1069 21.714 12.5211 20.7006 11.0882 20.7006C10.2569 20.7006 9.58398 20.0198 9.58398 19.1965Z" stroke="#5256E8" stroke-width="1.2" stroke-miterlimit="10" stroke-linecap="round" stroke-linejoin="round"/>
</svg>
