<svg width="36" height="36" viewBox="0 0 36 36" fill="none" xmlns="http://www.w3.org/2000/svg">
<circle cx="18" cy="18" r="18" fill="#F5F5FF"/>
<path d="M18.834 15.5H13.834" stroke="#5256E8" stroke-width="1.2" stroke-linecap="round" stroke-linejoin="round"/>
<path d="M26.3329 17.142V18.8587C26.3329 19.317 25.9662 19.692 25.4995 19.7086H23.8662C22.9662 19.7086 22.1412 19.0503 22.0662 18.1503C22.0162 17.6253 22.2162 17.1336 22.5662 16.792C22.8745 16.4753 23.2995 16.292 23.7662 16.292H25.4995C25.9662 16.3087 26.3329 16.6836 26.3329 17.142Z" stroke="#5256E8" stroke-width="1.2" stroke-linecap="round" stroke-linejoin="round"/>
<path d="M22.566 16.792C22.216 17.1336 22.016 17.6253 22.066 18.1503C22.141 19.0503 22.966 19.7086 23.866 19.7086H25.4993V20.917C25.4993 23.417 23.8327 25.0837 21.3327 25.0837H13.8327C11.3327 25.0837 9.66602 23.417 9.66602 20.917V15.0837C9.66602 12.817 11.0327 11.2337 13.1577 10.967C13.3744 10.9337 13.5993 10.917 13.8327 10.917H21.3327C21.5493 10.917 21.7577 10.9253 21.9577 10.9586C24.1077 11.2086 25.4993 12.8003 25.4993 15.0837V16.292H23.766C23.2993 16.292 22.8743 16.4753 22.566 16.792Z" stroke="#5256E8" stroke-width="1.2" stroke-linecap="round" stroke-linejoin="round"/>
</svg>
