<svg width="44" height="44" viewBox="0 0 44 44" fill="none" xmlns="http://www.w3.org/2000/svg">
<circle cx="22" cy="22" r="22" fill="white"/>
<path d="M22.5168 13.5459C19.6205 13.5459 17.2668 15.8996 17.2668 18.7959V21.3246C17.2668 21.8584 17.0393 22.6721 16.768 23.1271L15.7618 24.7984C15.1405 25.8309 15.5693 26.9771 16.7068 27.3621C20.478 28.6221 24.5468 28.6221 28.318 27.3621C29.3768 27.0121 29.8405 25.7609 29.263 24.7984L28.2568 23.1271C27.9943 22.6721 27.7668 21.8584 27.7668 21.3246V18.7959C27.7668 15.9084 25.4043 13.5459 22.5168 13.5459Z" stroke="#292D32" stroke-width="1.5" stroke-miterlimit="10" stroke-linecap="round"/>
<path d="M24.1359 13.7998C23.8647 13.721 23.5847 13.6598 23.2959 13.6248C22.4559 13.5198 21.6509 13.581 20.8984 13.7998C21.1522 13.1523 21.7822 12.6973 22.5172 12.6973C23.2522 12.6973 23.8822 13.1523 24.1359 13.7998Z" stroke="#292D32" stroke-width="1.5" stroke-miterlimit="10" stroke-linecap="round" stroke-linejoin="round"/>
<path d="M25.1426 27.6777C25.1426 29.1215 23.9613 30.3027 22.5176 30.3027C21.8001 30.3027 21.1351 30.0052 20.6626 29.5327C20.1901 29.0602 19.8926 28.3952 19.8926 27.6777" stroke="#292D32" stroke-width="1.5" stroke-miterlimit="10"/>
</svg>
