<svg width="120" height="120" viewBox="0 0 120 120" fill="none" xmlns="http://www.w3.org/2000/svg">
<mask id="mask0_88_42668" style="mask-type:alpha" maskUnits="userSpaceOnUse" x="0" y="0" width="120" height="120">
<circle cx="60" cy="60" r="60" fill="#DEDEE8"/>
</mask>
<g mask="url(#mask0_88_42668)">
<circle opacity="0.1" cx="60" cy="60" r="60" fill="#F26060"/>
<path d="M41.059 109.873C41.059 109.873 26.6601 112.768 26.0515 100.643C25.7884 95.3955 25.0807 96.2161 20.4922 91.791C15.9036 87.3658 15.9036 85.5635 16.8876 81.4664C17.8717 77.3692 22.0031 75.9617 19.9611 72.1757C17.2709 67.1894 18.0957 58.6653 23.9411 55.3425C29.5918 52.1303 30.228 52.1735 30.228 48.8796C30.228 44.5776 34.6946 37.6455 43.9102 38.3664C51.8402 38.9858 50.6056 35.1289 56.2257 33.4107C66.6897 30.2105 71.76 39.2735 75.3652 39.6015C78.9703 39.9295 85.2092 39.9902 88.3757 44.7818C92.3029 50.7245 88.8335 55.5744 93.7501 56.0658C98.6667 56.5573 103.583 60.8184 103.419 65.2436C103.255 69.6688 100.633 73.4373 102.436 75.4042C104.239 77.371 104.937 89.0179 97.6628 91.2473C87.7215 94.2931 97.6628 109.01 79.3794 108.737C62.9422 108.491 41.059 109.873 41.059 109.873Z" fill="#3F2037"/>
<path d="M100.189 121.194H17.7656C17.7656 121.194 18.5935 110.91 23.5701 108.922C24.5992 108.51 26.3114 107.706 28.3792 106.693C28.6651 106.552 28.9595 106.408 29.2581 106.259H29.2641C29.792 105.998 30.3369 105.726 30.8988 105.443C34.9076 103.433 39.6223 100.986 43.2935 99.0633L44.5317 98.4151C47.4418 96.8856 49.4417 95.8223 49.4417 95.8223L50.0713 95.9634C55.9302 97.2759 62.0121 97.2276 67.8494 95.8223C67.8494 95.8223 69.9238 96.8904 72.9342 98.4241C72.9727 98.4446 73.0099 98.4632 73.049 98.4842C74.8657 99.4112 77.0139 100.503 79.2524 101.628C85.2641 104.655 91.8977 107.93 94.3854 108.926C99.3633 110.91 100.189 121.194 100.189 121.194Z" fill="#0075CF"/>
<path d="M59.7936 115.705C58.0247 115.707 56.2628 115.483 54.5502 115.041C52.503 114.544 50.5581 113.695 48.8027 112.53C48.7527 112.496 48.7101 112.453 48.6773 112.402C48.6445 112.351 48.6224 112.294 48.6121 112.234C48.6018 112.175 48.6036 112.114 48.6174 112.055C48.6311 111.996 48.6567 111.94 48.6924 111.892C48.7281 111.843 48.7732 111.802 48.8252 111.771C48.8771 111.74 48.9347 111.719 48.9947 111.711C49.0546 111.703 49.1155 111.707 49.1739 111.723C49.2323 111.739 49.2869 111.766 49.3344 111.803C51.013 112.901 52.8664 113.704 54.8151 114.179C59.4046 115.325 64.2476 114.876 68.5478 112.904C68.6024 112.878 68.662 112.862 68.7228 112.859C68.7837 112.855 68.8445 112.864 68.9018 112.885C68.959 112.906 69.0114 112.938 69.0558 112.98C69.1002 113.022 69.1357 113.072 69.1601 113.128C69.1845 113.184 69.1973 113.244 69.1978 113.305C69.1982 113.366 69.1863 113.426 69.1628 113.483C69.1393 113.539 69.1046 113.59 69.0608 113.632C69.0171 113.674 68.9651 113.708 68.9082 113.729C66.0413 115.017 62.9364 115.69 59.7936 115.705Z" fill="#0056A8"/>
<path d="M72.9356 98.4208C71.9636 102.648 68.8294 110.543 58.977 110.543C48.489 110.543 45.3891 102.121 44.5312 98.4112C47.4413 96.8817 49.4412 95.8184 49.4412 95.8184L50.0708 95.9595C55.9298 97.272 62.0116 97.2237 67.849 95.8184C67.849 95.8184 69.9252 96.8871 72.9356 98.4208Z" fill="#FFB8A1"/>
<path d="M34.3369 121.194H17.7656C17.7656 121.194 18.5935 110.91 23.5701 108.922C24.5992 108.51 26.3114 107.706 28.3792 106.693C28.6651 106.552 28.9595 106.408 29.2581 106.259H29.2641C29.792 105.998 30.3369 105.726 30.8988 105.443C32.1387 108.897 34.1927 115.438 34.3369 121.194Z" fill="#FFB8A1"/>
<path d="M83.6211 121.194H100.188C100.188 121.194 99.3603 110.91 94.3842 108.922C93.3545 108.51 91.643 107.706 89.5752 106.693C89.2884 106.552 88.9952 106.407 88.6957 106.259H88.6897C88.1618 105.998 87.6169 105.726 87.055 105.443C85.8187 108.897 83.7647 115.438 83.6211 121.194Z" fill="#FFB8A1"/>
<path d="M68.2722 97.9185C68.2722 97.9185 66.6556 103 59.2279 103C50.5644 103 48.5254 98.3805 48.5254 98.3805C49.2048 96.5928 49.7471 94.756 50.1474 92.886C50.6448 90.6343 50.8775 88.3322 50.8407 86.0265L66.0608 85.4258C66.2014 86.7144 66.4303 88.2319 66.6892 89.7584C67.3759 93.8099 68.2722 97.9185 68.2722 97.9185Z" fill="#FFB8A1"/>
<path d="M66.6883 89.757C64.3297 91.3971 59.1746 93.8385 50.1465 92.8869C50.6439 90.6353 50.8765 88.3332 50.8398 86.0275L66.0599 85.4268C66.2005 86.7118 66.4276 88.2293 66.6883 89.757Z" fill="#3F2037"/>
<path d="M74.8241 67.0428C74.8241 67.0428 78.3896 62.1899 81.1633 65.0603C83.937 67.9307 78.5879 77.9363 73.7344 75.7574L74.8241 67.0428Z" fill="#FFB8A1"/>
<path d="M73.3504 75.6611C71.8864 76.3691 70.7239 77.5773 70.0727 79.0674C69.4216 80.5575 69.3248 82.2314 69.7997 83.7867C70.2747 85.3419 71.2901 86.6761 72.6627 87.5482C74.0352 88.4203 75.6744 88.7729 77.2841 88.5423C78.8938 88.3116 80.3681 87.513 81.4405 86.2906C82.5129 85.0681 83.1129 83.5025 83.132 81.8765C83.1512 80.2504 82.5883 78.6711 81.5449 77.4237C80.5016 76.1764 79.0466 75.3432 77.4427 75.0747C77.1333 75.0221 76.8205 74.9916 76.5067 74.9834C76.5292 74.7213 76.5837 74.4628 76.6689 74.2139C77.1857 74.2369 77.6987 74.3136 78.1996 74.4428C79.9477 74.8902 81.4792 75.9458 82.5194 77.4202C83.5595 78.8947 84.0403 80.6915 83.8755 82.4884C83.7107 84.2853 82.911 85.9646 81.6199 87.2252C80.3289 88.4858 78.6309 89.2452 76.8306 89.3671C75.0303 89.489 73.2455 88.9655 71.7963 87.8904C70.3471 86.8154 69.3283 85.2592 68.9227 83.5009C68.5171 81.7427 68.7513 79.8974 69.5832 78.2962C70.4151 76.695 71.7903 75.4425 73.4621 74.7636L73.3504 75.6611Z" fill="#FFF7F1"/>
<path d="M76.2585 72.7776C76.2471 72.7785 76.2357 72.7785 76.2243 72.7776C76.1596 72.7687 76.1011 72.7344 76.0617 72.6824C76.0223 72.6303 76.0051 72.5648 76.014 72.5001C76.3955 70.2265 77.5913 68.1695 79.3783 66.713C79.4303 66.6732 79.496 66.6556 79.5609 66.6643C79.6259 66.6729 79.6848 66.7069 79.7246 66.759C79.7644 66.811 79.782 66.8767 79.7733 66.9417C79.7647 67.0066 79.7307 67.0655 79.6786 67.1053C78.0054 68.4915 76.8796 70.4275 76.5024 72.5674C76.4939 72.6259 76.4645 72.6794 76.4197 72.718C76.3749 72.7567 76.3177 72.7778 76.2585 72.7776Z" fill="#FF8A8A"/>
<path d="M77.0059 70.3563C76.9612 70.3562 76.9174 70.3439 76.8791 70.3208C76.8409 70.2978 76.8096 70.2647 76.7886 70.2253C76.7677 70.1858 76.7578 70.1414 76.7601 70.0968C76.7624 70.0521 76.7768 70.009 76.8017 69.9719C77.3892 69.1032 78.9824 69.1909 79.0497 69.1963C79.1149 69.2003 79.1759 69.23 79.2192 69.279C79.2626 69.3279 79.2847 69.3921 79.2807 69.4573C79.2767 69.5226 79.2469 69.5835 79.198 69.6269C79.149 69.6702 79.0849 69.6923 79.0196 69.6883C78.6364 69.6655 77.5664 69.7207 77.2102 70.2476C77.1876 70.281 77.1571 70.3084 77.1215 70.3273C77.0859 70.3463 77.0462 70.3562 77.0059 70.3563Z" fill="#FF8A8A"/>
<path d="M43.8984 67.0428C43.8984 67.0428 40.3329 62.1899 37.5592 65.0603C34.7856 67.9307 40.1347 77.9363 44.9882 75.7574L43.8984 67.0428Z" fill="#FFB8A1"/>
<path d="M44.8646 74.7636C46.5362 75.4426 47.9112 76.6949 48.743 78.296C49.5747 79.8971 49.8088 81.7422 49.4032 83.5002C48.9976 85.2583 47.979 86.8144 46.5299 87.8893C45.0808 88.9642 43.2962 89.4877 41.4961 89.3658C39.6959 89.2439 37.9981 88.4847 36.7072 87.2242C35.4162 85.9638 34.6166 84.2846 34.4517 82.4879C34.2868 80.6912 34.7674 78.8946 35.8074 77.4202C36.8474 75.9459 38.3786 74.8903 40.1265 74.4428C40.6276 74.3137 41.1408 74.237 41.6578 74.2139C41.7431 74.4628 41.7975 74.7213 41.82 74.9834C41.5061 74.9916 41.1931 75.0221 40.8835 75.0747C39.2796 75.3432 37.8246 76.1764 36.7812 77.4237C35.7379 78.6711 35.1749 80.2504 35.1941 81.8765C35.2132 83.5025 35.8132 85.0681 36.8857 86.2906C37.9581 87.513 39.4323 88.3116 41.042 88.5423C42.6518 88.7729 44.2909 88.4203 45.6635 87.5482C47.036 86.6761 48.0514 85.3419 48.5264 83.7867C49.0014 82.2314 48.9045 80.5575 48.2534 79.0674C47.6023 77.5773 46.4397 76.3691 44.9758 75.6611L44.8646 74.7636Z" fill="#FFF7F1"/>
<path d="M44.8646 74.7636C46.5362 75.4426 47.9112 76.6949 48.743 78.296C49.5747 79.8971 49.8088 81.7422 49.4032 83.5002C48.9976 85.2583 47.979 86.8144 46.5299 87.8893C45.0808 88.9642 43.2962 89.4877 41.4961 89.3658C39.6959 89.2439 37.9981 88.4847 36.7072 87.2242C35.4162 85.9638 34.6166 84.2846 34.4517 82.4879C34.2868 80.6912 34.7674 78.8946 35.8074 77.4202C36.8474 75.9459 38.3786 74.8903 40.1265 74.4428C40.6276 74.3137 41.1408 74.237 41.6578 74.2139C41.7431 74.4628 41.7975 74.7213 41.82 74.9834C41.5061 74.9916 41.1931 75.0221 40.8835 75.0747C39.2796 75.3432 37.8246 76.1764 36.7812 77.4237C35.7379 78.6711 35.1749 80.2504 35.1941 81.8765C35.2132 83.5025 35.8132 85.0681 36.8857 86.2906C37.9581 87.513 39.4323 88.3116 41.042 88.5423C42.6518 88.7729 44.2909 88.4203 45.6635 87.5482C47.036 86.6761 48.0514 85.3419 48.5264 83.7867C49.0014 82.2314 48.9045 80.5575 48.2534 79.0674C47.6023 77.5773 46.4397 76.3691 44.9758 75.6611L44.8646 74.7636Z" fill="#FFF7F1"/>
<path d="M42.4642 72.7776C42.4756 72.7785 42.4871 72.7785 42.4985 72.7776C42.5631 72.7687 42.6216 72.7344 42.6611 72.6824C42.7005 72.6303 42.7176 72.5648 42.7087 72.5001C42.3273 70.2265 41.1315 68.1695 39.3445 66.713C39.2925 66.6732 39.2268 66.6556 39.1618 66.6643C39.0969 66.6729 39.038 66.7069 38.9982 66.759C38.9583 66.811 38.9408 66.8767 38.9494 66.9417C38.958 67.0066 38.9921 67.0655 39.0441 67.1053C40.7173 68.4915 41.8431 70.4275 42.2203 72.5674C42.2288 72.6259 42.2582 72.6794 42.303 72.718C42.3478 72.7567 42.4051 72.7778 42.4642 72.7776Z" fill="#FF8A8A"/>
<path d="M41.7186 70.3563C41.7633 70.3562 41.8071 70.3439 41.8454 70.3208C41.8836 70.2978 41.9149 70.2647 41.9359 70.2253C41.9568 70.1858 41.9667 70.1414 41.9644 70.0968C41.9621 70.0521 41.9477 70.009 41.9228 69.9719C41.3353 69.1032 39.7421 69.1909 39.6748 69.1963C39.6096 69.2003 39.5486 69.23 39.5053 69.279C39.4619 69.3279 39.4398 69.3921 39.4438 69.4573C39.4478 69.5226 39.4776 69.5835 39.5265 69.6269C39.5755 69.6702 39.6396 69.6923 39.7049 69.6883C40.0881 69.6655 41.1581 69.7207 41.5143 70.2476C41.5369 70.281 41.5674 70.3084 41.603 70.3273C41.6386 70.3463 41.6782 70.3562 41.7186 70.3563Z" fill="#FF8A8A"/>
<path d="M76.6329 67.8291C76.3757 77.7061 71.0128 91.0783 59.226 90.799C48.7968 90.5545 43.6177 80.6576 42.3568 71.6295C42.251 70.8677 42.1723 70.1107 42.1213 69.3676C41.1168 54.8155 46.9027 47.3655 59.3383 46.9588C60.0364 46.9356 60.7561 46.9356 61.4974 46.9588C62.9602 47.1105 64.4122 47.3525 65.8451 47.6833C74.4365 50.4985 76.902 57.445 76.6329 67.8291Z" fill="#FFB8A1"/>
<g opacity="0.5">
<g opacity="0.5">
<path opacity="0.5" d="M53.3479 73.7532C53.3479 74.8946 51.2453 75.8156 48.6518 75.8156C46.0583 75.8156 43.9551 74.8922 43.9551 73.7532C43.9551 72.6142 46.0577 71.6914 48.6518 71.6914C51.2459 71.6914 53.3479 72.6148 53.3479 73.7532Z" fill="#FF8A8A"/>
</g>
</g>
<g opacity="0.5">
<g opacity="0.5">
<path opacity="0.5" d="M75.443 73.7532C75.443 74.8946 73.3403 75.8156 70.7469 75.8156C68.1534 75.8156 66.0508 74.8922 66.0508 73.7532C66.0508 72.6142 68.1534 71.6914 70.7469 71.6914C73.3403 71.6914 75.443 72.6148 75.443 73.7532Z" fill="#FF8A8A"/>
</g>
</g>
<path d="M52.4595 55.8527C49.404 56.0846 50.3226 59.6242 47.314 61.3544C44.0099 63.254 44.4202 64.3918 45.2198 67.0544C46.4075 71.0103 42.502 71.9511 42.502 71.9511C42.4527 71.8478 42.4028 71.7409 42.3554 71.6327C42.2496 70.871 42.1709 70.114 42.1199 69.3709C41.1154 54.8158 45.7665 46.3337 59.3345 46.9591C61.0191 53.3325 56.5476 55.5421 52.4595 55.8527Z" fill="#3F2037"/>
<path d="M65.9533 54.8082C70.0156 54.7434 68.5966 58.9487 70.996 60.8831C73.9614 63.2747 74.934 62.2582 73.6309 66.1769C72.284 70.229 76.1541 71.9514 76.1541 71.9514C76.204 71.8481 76.2532 71.7411 76.3013 71.633C76.4064 70.8713 76.4857 70.1143 76.5368 69.3712C77.5413 54.8161 72.6181 46.3724 59.3221 46.9594C57.6424 53.3328 61.8543 54.8731 65.9533 54.8082Z" fill="#3F2037"/>
<path d="M55.2872 60.8889C53.6934 60.9255 50.2181 61.3509 48.6543 64.2453C48.6543 64.2453 52.2456 62.5391 55.2512 62.7218C55.3858 62.7299 55.5206 62.7081 55.6459 62.6581C55.7712 62.6081 55.8839 62.5311 55.976 62.4325C56.0681 62.3339 56.1373 62.2162 56.1787 62.0878C56.2201 61.9594 56.2326 61.8235 56.2154 61.6897C56.187 61.4651 56.0764 61.259 55.905 61.1112C55.7336 60.9633 55.5135 60.8841 55.2872 60.8889Z" fill="#3F2037"/>
<path d="M64.1121 60.8889C65.7059 60.9255 69.1812 61.3509 70.7444 64.2453C70.7444 64.2453 67.1531 62.5392 64.1481 62.7218C64.0134 62.73 63.8785 62.7083 63.7532 62.6584C63.6278 62.6084 63.515 62.5314 63.4228 62.4328C63.3307 62.3342 63.2614 62.2165 63.22 62.088C63.1786 61.9596 63.1661 61.8236 63.1833 61.6897C63.2116 61.465 63.3222 61.2587 63.4938 61.1108C63.6653 60.9629 63.8856 60.8839 64.1121 60.8889Z" fill="#3F2037"/>
<path d="M60.1668 77.4599C59.5283 77.4411 58.9004 77.2917 58.3219 77.0207C58.2322 76.9819 58.1577 76.9149 58.1094 76.8299C58.0612 76.745 58.0419 76.6466 58.0545 76.5497L58.9965 69.3136C59.0119 69.1951 59.0738 69.0875 59.1684 69.0146C59.2631 68.9416 59.3829 68.9093 59.5015 68.9246C59.62 68.94 59.7276 69.0019 59.8006 69.0965C59.8735 69.1912 59.9058 69.311 59.8905 69.4296L58.9929 76.3202C59.3452 76.4951 59.7358 76.5789 60.1288 76.5639C60.5218 76.5489 60.9048 76.4356 61.2428 76.2343C61.2917 76.1988 61.3473 76.1735 61.4063 76.1599C61.4652 76.1463 61.5263 76.1447 61.5858 76.1553C61.6454 76.1658 61.7022 76.1882 61.753 76.2212C61.8037 76.2541 61.8472 76.2969 61.881 76.3471C61.9148 76.3972 61.9382 76.4537 61.9497 76.5131C61.9613 76.5724 61.9607 76.6335 61.9481 76.6927C61.9356 76.7519 61.9112 76.8079 61.8765 76.8574C61.8418 76.907 61.7975 76.949 61.7462 76.9811C61.281 77.2982 60.7298 77.4653 60.1668 77.4599Z" fill="#FF8A8A"/>
<path d="M59.2735 82.2434C58.9013 82.2433 58.5294 82.2218 58.1597 82.1791C56.9187 82.0421 55.7128 81.6817 54.6002 81.1152C54.4958 81.0569 54.4189 80.9596 54.3862 80.8447C54.3536 80.7297 54.368 80.6065 54.4263 80.5021C54.4845 80.3977 54.5818 80.3208 54.6968 80.2882C54.8117 80.2556 54.935 80.27 55.0393 80.3282C55.2562 80.4483 60.4095 83.2322 64.8707 79.1051C64.9589 79.0276 65.0739 78.9877 65.1911 78.9938C65.3084 78.9998 65.4186 79.0514 65.4984 79.1375C65.5782 79.2237 65.6212 79.3375 65.6183 79.4549C65.6154 79.5722 65.5668 79.6838 65.4829 79.7659C63.8111 81.3632 61.5857 82.2511 59.2735 82.2434Z" fill="#FF8A8A"/>
<path d="M60.0589 84.886C59.4001 84.8846 58.7447 84.7922 58.1112 84.6114C57.9987 84.5746 57.9052 84.495 57.8509 84.3898C57.7967 84.2846 57.786 84.1623 57.8212 84.0492C57.8564 83.9362 57.9346 83.8416 58.0391 83.7858C58.1435 83.73 58.2656 83.7176 58.3792 83.7512C58.4044 83.759 60.4668 84.3802 61.9188 83.5589C61.9703 83.5238 62.0285 83.4997 62.0897 83.4882C62.1509 83.4767 62.2139 83.478 62.2746 83.4921C62.3353 83.5062 62.3924 83.5327 62.4423 83.5699C62.4923 83.6072 62.5339 83.6544 62.5647 83.7086C62.5955 83.7628 62.6146 83.8228 62.621 83.8847C62.6275 83.9467 62.6209 84.0093 62.6019 84.0687C62.5829 84.128 62.5517 84.1827 62.5105 84.2294C62.4692 84.2761 62.4187 84.3137 62.3622 84.3399C61.6539 84.7164 60.8608 84.9045 60.0589 84.886Z" fill="#FF8A8A"/>
<path d="M53.9841 67.8142C54.0057 69.0722 53.5425 70.0971 52.9484 70.1103C52.3542 70.1235 51.8544 69.1094 51.8328 67.8515C51.8111 66.5935 52.2749 65.565 52.8685 65.5548C53.462 65.5446 53.9625 66.5562 53.9841 67.8142Z" fill="#3F2037"/>
<path d="M65.2253 67.8142C65.2037 69.0722 65.6675 70.0971 66.261 70.1103C66.8546 70.1235 67.355 69.1094 67.3767 67.8515C67.3983 66.5935 66.9351 65.565 66.341 65.5548C65.7468 65.5446 65.25 66.5562 65.2253 67.8142Z" fill="#3F2037"/>
</g>
</svg>
